<mxfile host="app.diagrams.net" agent="Mozilla/5.0 (Windows NT 10.0; Win64; x64) AppleWebKit/537.36 (KHTML, like Gecko) Chrome/133.0.0.0 Safari/537.36" version="26.0.11">
  <diagram name="PÃ¡gina-1" id="NX2gMOwVnBS0EmzMO7Or">
    <mxGraphModel dx="700" dy="403" grid="1" gridSize="10" guides="1" tooltips="1" connect="1" arrows="1" fold="1" page="1" pageScale="1" pageWidth="1169" pageHeight="827" math="0" shadow="0">
      <root>
        <mxCell id="0" />
        <mxCell id="1" parent="0" />
        <mxCell id="wzYJ2r0seQuiLL_xnfaj-1" value="USUARIOS" style="shape=table;startSize=30;container=1;collapsible=1;childLayout=tableLayout;fixedRows=1;rowLines=0;fontStyle=1;align=center;resizeLast=1;html=1;" parent="1" vertex="1">
          <mxGeometry x="612.75" y="278" width="180" height="240" as="geometry" />
        </mxCell>
        <mxCell id="wzYJ2r0seQuiLL_xnfaj-2" value="" style="shape=tableRow;horizontal=0;startSize=0;swimlaneHead=0;swimlaneBody=0;fillColor=none;collapsible=0;dropTarget=0;points=[[0,0.5],[1,0.5]];portConstraint=eastwest;top=0;left=0;right=0;bottom=1;" parent="wzYJ2r0seQuiLL_xnfaj-1" vertex="1">
          <mxGeometry y="30" width="180" height="30" as="geometry" />
        </mxCell>
        <mxCell id="wzYJ2r0seQuiLL_xnfaj-3" value="PK" style="shape=partialRectangle;connectable=0;fillColor=none;top=0;left=0;bottom=0;right=0;fontStyle=1;overflow=hidden;whiteSpace=wrap;html=1;" parent="wzYJ2r0seQuiLL_xnfaj-2" vertex="1">
          <mxGeometry width="30" height="30" as="geometry">
            <mxRectangle width="30" height="30" as="alternateBounds" />
          </mxGeometry>
        </mxCell>
        <mxCell id="wzYJ2r0seQuiLL_xnfaj-4" value="idUsuario" style="shape=partialRectangle;connectable=0;fillColor=none;top=0;left=0;bottom=0;right=0;align=left;spacingLeft=6;fontStyle=5;overflow=hidden;whiteSpace=wrap;html=1;" parent="wzYJ2r0seQuiLL_xnfaj-2" vertex="1">
          <mxGeometry x="30" width="150" height="30" as="geometry">
            <mxRectangle width="150" height="30" as="alternateBounds" />
          </mxGeometry>
        </mxCell>
        <mxCell id="wzYJ2r0seQuiLL_xnfaj-5" value="" style="shape=tableRow;horizontal=0;startSize=0;swimlaneHead=0;swimlaneBody=0;fillColor=none;collapsible=0;dropTarget=0;points=[[0,0.5],[1,0.5]];portConstraint=eastwest;top=0;left=0;right=0;bottom=0;" parent="wzYJ2r0seQuiLL_xnfaj-1" vertex="1">
          <mxGeometry y="60" width="180" height="30" as="geometry" />
        </mxCell>
        <mxCell id="wzYJ2r0seQuiLL_xnfaj-6" value="" style="shape=partialRectangle;connectable=0;fillColor=none;top=0;left=0;bottom=0;right=0;editable=1;overflow=hidden;whiteSpace=wrap;html=1;" parent="wzYJ2r0seQuiLL_xnfaj-5" vertex="1">
          <mxGeometry width="30" height="30" as="geometry">
            <mxRectangle width="30" height="30" as="alternateBounds" />
          </mxGeometry>
        </mxCell>
        <mxCell id="wzYJ2r0seQuiLL_xnfaj-7" value="contrasena" style="shape=partialRectangle;connectable=0;fillColor=none;top=0;left=0;bottom=0;right=0;align=left;spacingLeft=6;overflow=hidden;whiteSpace=wrap;html=1;" parent="wzYJ2r0seQuiLL_xnfaj-5" vertex="1">
          <mxGeometry x="30" width="150" height="30" as="geometry">
            <mxRectangle width="150" height="30" as="alternateBounds" />
          </mxGeometry>
        </mxCell>
        <mxCell id="wzYJ2r0seQuiLL_xnfaj-8" value="" style="shape=tableRow;horizontal=0;startSize=0;swimlaneHead=0;swimlaneBody=0;fillColor=none;collapsible=0;dropTarget=0;points=[[0,0.5],[1,0.5]];portConstraint=eastwest;top=0;left=0;right=0;bottom=0;" parent="wzYJ2r0seQuiLL_xnfaj-1" vertex="1">
          <mxGeometry y="90" width="180" height="30" as="geometry" />
        </mxCell>
        <mxCell id="wzYJ2r0seQuiLL_xnfaj-9" value="" style="shape=partialRectangle;connectable=0;fillColor=none;top=0;left=0;bottom=0;right=0;editable=1;overflow=hidden;whiteSpace=wrap;html=1;" parent="wzYJ2r0seQuiLL_xnfaj-8" vertex="1">
          <mxGeometry width="30" height="30" as="geometry">
            <mxRectangle width="30" height="30" as="alternateBounds" />
          </mxGeometry>
        </mxCell>
        <mxCell id="wzYJ2r0seQuiLL_xnfaj-10" value="&lt;span style=&quot;text-align: center;&quot;&gt;nombreUsuario&lt;/span&gt;" style="shape=partialRectangle;connectable=0;fillColor=none;top=0;left=0;bottom=0;right=0;align=left;spacingLeft=6;overflow=hidden;whiteSpace=wrap;html=1;" parent="wzYJ2r0seQuiLL_xnfaj-8" vertex="1">
          <mxGeometry x="30" width="150" height="30" as="geometry">
            <mxRectangle width="150" height="30" as="alternateBounds" />
          </mxGeometry>
        </mxCell>
        <mxCell id="wzYJ2r0seQuiLL_xnfaj-11" value="" style="shape=tableRow;horizontal=0;startSize=0;swimlaneHead=0;swimlaneBody=0;fillColor=none;collapsible=0;dropTarget=0;points=[[0,0.5],[1,0.5]];portConstraint=eastwest;top=0;left=0;right=0;bottom=0;" parent="wzYJ2r0seQuiLL_xnfaj-1" vertex="1">
          <mxGeometry y="120" width="180" height="30" as="geometry" />
        </mxCell>
        <mxCell id="wzYJ2r0seQuiLL_xnfaj-12" value="" style="shape=partialRectangle;connectable=0;fillColor=none;top=0;left=0;bottom=0;right=0;editable=1;overflow=hidden;whiteSpace=wrap;html=1;" parent="wzYJ2r0seQuiLL_xnfaj-11" vertex="1">
          <mxGeometry width="30" height="30" as="geometry">
            <mxRectangle width="30" height="30" as="alternateBounds" />
          </mxGeometry>
        </mxCell>
        <mxCell id="wzYJ2r0seQuiLL_xnfaj-13" value="apellido1" style="shape=partialRectangle;connectable=0;fillColor=none;top=0;left=0;bottom=0;right=0;align=left;spacingLeft=6;overflow=hidden;whiteSpace=wrap;html=1;" parent="wzYJ2r0seQuiLL_xnfaj-11" vertex="1">
          <mxGeometry x="30" width="150" height="30" as="geometry">
            <mxRectangle width="150" height="30" as="alternateBounds" />
          </mxGeometry>
        </mxCell>
        <mxCell id="wzYJ2r0seQuiLL_xnfaj-40" value="" style="shape=tableRow;horizontal=0;startSize=0;swimlaneHead=0;swimlaneBody=0;fillColor=none;collapsible=0;dropTarget=0;points=[[0,0.5],[1,0.5]];portConstraint=eastwest;top=0;left=0;right=0;bottom=0;" parent="wzYJ2r0seQuiLL_xnfaj-1" vertex="1">
          <mxGeometry y="150" width="180" height="30" as="geometry" />
        </mxCell>
        <mxCell id="wzYJ2r0seQuiLL_xnfaj-41" value="" style="shape=partialRectangle;connectable=0;fillColor=none;top=0;left=0;bottom=0;right=0;editable=1;overflow=hidden;whiteSpace=wrap;html=1;" parent="wzYJ2r0seQuiLL_xnfaj-40" vertex="1">
          <mxGeometry width="30" height="30" as="geometry">
            <mxRectangle width="30" height="30" as="alternateBounds" />
          </mxGeometry>
        </mxCell>
        <mxCell id="wzYJ2r0seQuiLL_xnfaj-42" value="apellido2" style="shape=partialRectangle;connectable=0;fillColor=none;top=0;left=0;bottom=0;right=0;align=left;spacingLeft=6;overflow=hidden;whiteSpace=wrap;html=1;" parent="wzYJ2r0seQuiLL_xnfaj-40" vertex="1">
          <mxGeometry x="30" width="150" height="30" as="geometry">
            <mxRectangle width="150" height="30" as="alternateBounds" />
          </mxGeometry>
        </mxCell>
        <mxCell id="wzYJ2r0seQuiLL_xnfaj-46" value="" style="shape=tableRow;horizontal=0;startSize=0;swimlaneHead=0;swimlaneBody=0;fillColor=none;collapsible=0;dropTarget=0;points=[[0,0.5],[1,0.5]];portConstraint=eastwest;top=0;left=0;right=0;bottom=0;" parent="wzYJ2r0seQuiLL_xnfaj-1" vertex="1">
          <mxGeometry y="180" width="180" height="30" as="geometry" />
        </mxCell>
        <mxCell id="wzYJ2r0seQuiLL_xnfaj-47" value="" style="shape=partialRectangle;connectable=0;fillColor=none;top=0;left=0;bottom=0;right=0;editable=1;overflow=hidden;whiteSpace=wrap;html=1;" parent="wzYJ2r0seQuiLL_xnfaj-46" vertex="1">
          <mxGeometry width="30" height="30" as="geometry">
            <mxRectangle width="30" height="30" as="alternateBounds" />
          </mxGeometry>
        </mxCell>
        <mxCell id="wzYJ2r0seQuiLL_xnfaj-48" value="email" style="shape=partialRectangle;connectable=0;fillColor=none;top=0;left=0;bottom=0;right=0;align=left;spacingLeft=6;overflow=hidden;whiteSpace=wrap;html=1;" parent="wzYJ2r0seQuiLL_xnfaj-46" vertex="1">
          <mxGeometry x="30" width="150" height="30" as="geometry">
            <mxRectangle width="150" height="30" as="alternateBounds" />
          </mxGeometry>
        </mxCell>
        <mxCell id="qb2vWf6YupKcYmzAb9Nw-108" style="shape=tableRow;horizontal=0;startSize=0;swimlaneHead=0;swimlaneBody=0;fillColor=none;collapsible=0;dropTarget=0;points=[[0,0.5],[1,0.5]];portConstraint=eastwest;top=0;left=0;right=0;bottom=0;" parent="wzYJ2r0seQuiLL_xnfaj-1" vertex="1">
          <mxGeometry y="210" width="180" height="30" as="geometry" />
        </mxCell>
        <mxCell id="qb2vWf6YupKcYmzAb9Nw-109" value="FK1" style="shape=partialRectangle;connectable=0;fillColor=none;top=0;left=0;bottom=0;right=0;editable=1;overflow=hidden;whiteSpace=wrap;html=1;" parent="qb2vWf6YupKcYmzAb9Nw-108" vertex="1">
          <mxGeometry width="30" height="30" as="geometry">
            <mxRectangle width="30" height="30" as="alternateBounds" />
          </mxGeometry>
        </mxCell>
        <mxCell id="qb2vWf6YupKcYmzAb9Nw-110" value="idDepartamento" style="shape=partialRectangle;connectable=0;fillColor=none;top=0;left=0;bottom=0;right=0;align=left;spacingLeft=6;overflow=hidden;whiteSpace=wrap;html=1;" parent="qb2vWf6YupKcYmzAb9Nw-108" vertex="1">
          <mxGeometry x="30" width="150" height="30" as="geometry">
            <mxRectangle width="150" height="30" as="alternateBounds" />
          </mxGeometry>
        </mxCell>
        <mxCell id="wzYJ2r0seQuiLL_xnfaj-14" value="ASIGNATURAS" style="shape=table;startSize=30;container=1;collapsible=1;childLayout=tableLayout;fixedRows=1;rowLines=0;fontStyle=1;align=center;resizeLast=1;html=1;" parent="1" vertex="1">
          <mxGeometry x="97.75" y="398" width="180" height="150" as="geometry">
            <mxRectangle x="560" y="220" width="80" height="30" as="alternateBounds" />
          </mxGeometry>
        </mxCell>
        <mxCell id="wzYJ2r0seQuiLL_xnfaj-15" value="" style="shape=tableRow;horizontal=0;startSize=0;swimlaneHead=0;swimlaneBody=0;fillColor=none;collapsible=0;dropTarget=0;points=[[0,0.5],[1,0.5]];portConstraint=eastwest;top=0;left=0;right=0;bottom=1;" parent="wzYJ2r0seQuiLL_xnfaj-14" vertex="1">
          <mxGeometry y="30" width="180" height="30" as="geometry" />
        </mxCell>
        <mxCell id="wzYJ2r0seQuiLL_xnfaj-16" value="PK" style="shape=partialRectangle;connectable=0;fillColor=none;top=0;left=0;bottom=0;right=0;fontStyle=1;overflow=hidden;whiteSpace=wrap;html=1;" parent="wzYJ2r0seQuiLL_xnfaj-15" vertex="1">
          <mxGeometry width="30" height="30" as="geometry">
            <mxRectangle width="30" height="30" as="alternateBounds" />
          </mxGeometry>
        </mxCell>
        <mxCell id="wzYJ2r0seQuiLL_xnfaj-17" value="idAsignatura" style="shape=partialRectangle;connectable=0;fillColor=none;top=0;left=0;bottom=0;right=0;align=left;spacingLeft=6;fontStyle=5;overflow=hidden;whiteSpace=wrap;html=1;" parent="wzYJ2r0seQuiLL_xnfaj-15" vertex="1">
          <mxGeometry x="30" width="150" height="30" as="geometry">
            <mxRectangle width="150" height="30" as="alternateBounds" />
          </mxGeometry>
        </mxCell>
        <mxCell id="wzYJ2r0seQuiLL_xnfaj-18" value="" style="shape=tableRow;horizontal=0;startSize=0;swimlaneHead=0;swimlaneBody=0;fillColor=none;collapsible=0;dropTarget=0;points=[[0,0.5],[1,0.5]];portConstraint=eastwest;top=0;left=0;right=0;bottom=0;" parent="wzYJ2r0seQuiLL_xnfaj-14" vertex="1">
          <mxGeometry y="60" width="180" height="30" as="geometry" />
        </mxCell>
        <mxCell id="wzYJ2r0seQuiLL_xnfaj-19" value="" style="shape=partialRectangle;connectable=0;fillColor=none;top=0;left=0;bottom=0;right=0;editable=1;overflow=hidden;whiteSpace=wrap;html=1;" parent="wzYJ2r0seQuiLL_xnfaj-18" vertex="1">
          <mxGeometry width="30" height="30" as="geometry">
            <mxRectangle width="30" height="30" as="alternateBounds" />
          </mxGeometry>
        </mxCell>
        <mxCell id="wzYJ2r0seQuiLL_xnfaj-20" value="nombreAsignatura" style="shape=partialRectangle;connectable=0;fillColor=none;top=0;left=0;bottom=0;right=0;align=left;spacingLeft=6;overflow=hidden;whiteSpace=wrap;html=1;" parent="wzYJ2r0seQuiLL_xnfaj-18" vertex="1">
          <mxGeometry x="30" width="150" height="30" as="geometry">
            <mxRectangle width="150" height="30" as="alternateBounds" />
          </mxGeometry>
        </mxCell>
        <mxCell id="wzYJ2r0seQuiLL_xnfaj-21" value="" style="shape=tableRow;horizontal=0;startSize=0;swimlaneHead=0;swimlaneBody=0;fillColor=none;collapsible=0;dropTarget=0;points=[[0,0.5],[1,0.5]];portConstraint=eastwest;top=0;left=0;right=0;bottom=0;" parent="wzYJ2r0seQuiLL_xnfaj-14" vertex="1">
          <mxGeometry y="90" width="180" height="30" as="geometry" />
        </mxCell>
        <mxCell id="wzYJ2r0seQuiLL_xnfaj-22" value="" style="shape=partialRectangle;connectable=0;fillColor=none;top=0;left=0;bottom=0;right=0;editable=1;overflow=hidden;whiteSpace=wrap;html=1;" parent="wzYJ2r0seQuiLL_xnfaj-21" vertex="1">
          <mxGeometry width="30" height="30" as="geometry">
            <mxRectangle width="30" height="30" as="alternateBounds" />
          </mxGeometry>
        </mxCell>
        <mxCell id="wzYJ2r0seQuiLL_xnfaj-23" value="curso" style="shape=partialRectangle;connectable=0;fillColor=none;top=0;left=0;bottom=0;right=0;align=left;spacingLeft=6;overflow=hidden;whiteSpace=wrap;html=1;" parent="wzYJ2r0seQuiLL_xnfaj-21" vertex="1">
          <mxGeometry x="30" width="150" height="30" as="geometry">
            <mxRectangle width="150" height="30" as="alternateBounds" />
          </mxGeometry>
        </mxCell>
        <mxCell id="qb2vWf6YupKcYmzAb9Nw-111" style="shape=tableRow;horizontal=0;startSize=0;swimlaneHead=0;swimlaneBody=0;fillColor=none;collapsible=0;dropTarget=0;points=[[0,0.5],[1,0.5]];portConstraint=eastwest;top=0;left=0;right=0;bottom=0;" parent="wzYJ2r0seQuiLL_xnfaj-14" vertex="1">
          <mxGeometry y="120" width="180" height="30" as="geometry" />
        </mxCell>
        <mxCell id="qb2vWf6YupKcYmzAb9Nw-112" value="FK" style="shape=partialRectangle;connectable=0;fillColor=none;top=0;left=0;bottom=0;right=0;editable=1;overflow=hidden;whiteSpace=wrap;html=1;" parent="qb2vWf6YupKcYmzAb9Nw-111" vertex="1">
          <mxGeometry width="30" height="30" as="geometry">
            <mxRectangle width="30" height="30" as="alternateBounds" />
          </mxGeometry>
        </mxCell>
        <mxCell id="qb2vWf6YupKcYmzAb9Nw-113" value="idDepartamento" style="shape=partialRectangle;connectable=0;fillColor=none;top=0;left=0;bottom=0;right=0;align=left;spacingLeft=6;overflow=hidden;whiteSpace=wrap;html=1;" parent="qb2vWf6YupKcYmzAb9Nw-111" vertex="1">
          <mxGeometry x="30" width="150" height="30" as="geometry">
            <mxRectangle width="150" height="30" as="alternateBounds" />
          </mxGeometry>
        </mxCell>
        <mxCell id="wzYJ2r0seQuiLL_xnfaj-27" value="RESERVAS" style="shape=table;startSize=30;container=1;collapsible=1;childLayout=tableLayout;fixedRows=1;rowLines=0;fontStyle=1;align=center;resizeLast=1;html=1;" parent="1" vertex="1">
          <mxGeometry x="356.5" y="188" width="209" height="120" as="geometry" />
        </mxCell>
        <mxCell id="wzYJ2r0seQuiLL_xnfaj-28" value="" style="shape=tableRow;horizontal=0;startSize=0;swimlaneHead=0;swimlaneBody=0;fillColor=none;collapsible=0;dropTarget=0;points=[[0,0.5],[1,0.5]];portConstraint=eastwest;top=0;left=0;right=0;bottom=1;" parent="wzYJ2r0seQuiLL_xnfaj-27" vertex="1">
          <mxGeometry y="30" width="209" height="30" as="geometry" />
        </mxCell>
        <mxCell id="wzYJ2r0seQuiLL_xnfaj-29" value="PK" style="shape=partialRectangle;connectable=0;fillColor=none;top=0;left=0;bottom=0;right=0;fontStyle=1;overflow=hidden;whiteSpace=wrap;html=1;" parent="wzYJ2r0seQuiLL_xnfaj-28" vertex="1">
          <mxGeometry width="30" height="30" as="geometry">
            <mxRectangle width="30" height="30" as="alternateBounds" />
          </mxGeometry>
        </mxCell>
        <mxCell id="wzYJ2r0seQuiLL_xnfaj-30" value="idReserva" style="shape=partialRectangle;connectable=0;fillColor=none;top=0;left=0;bottom=0;right=0;align=left;spacingLeft=6;fontStyle=5;overflow=hidden;whiteSpace=wrap;html=1;" parent="wzYJ2r0seQuiLL_xnfaj-28" vertex="1">
          <mxGeometry x="30" width="179" height="30" as="geometry">
            <mxRectangle width="179" height="30" as="alternateBounds" />
          </mxGeometry>
        </mxCell>
        <mxCell id="wzYJ2r0seQuiLL_xnfaj-31" value="" style="shape=tableRow;horizontal=0;startSize=0;swimlaneHead=0;swimlaneBody=0;fillColor=none;collapsible=0;dropTarget=0;points=[[0,0.5],[1,0.5]];portConstraint=eastwest;top=0;left=0;right=0;bottom=0;" parent="wzYJ2r0seQuiLL_xnfaj-27" vertex="1">
          <mxGeometry y="60" width="209" height="30" as="geometry" />
        </mxCell>
        <mxCell id="wzYJ2r0seQuiLL_xnfaj-32" value="" style="shape=partialRectangle;connectable=0;fillColor=none;top=0;left=0;bottom=0;right=0;editable=1;overflow=hidden;whiteSpace=wrap;html=1;" parent="wzYJ2r0seQuiLL_xnfaj-31" vertex="1">
          <mxGeometry width="30" height="30" as="geometry">
            <mxRectangle width="30" height="30" as="alternateBounds" />
          </mxGeometry>
        </mxCell>
        <mxCell id="wzYJ2r0seQuiLL_xnfaj-33" value="fecha" style="shape=partialRectangle;connectable=0;fillColor=none;top=0;left=0;bottom=0;right=0;align=left;spacingLeft=6;overflow=hidden;whiteSpace=wrap;html=1;" parent="wzYJ2r0seQuiLL_xnfaj-31" vertex="1">
          <mxGeometry x="30" width="179" height="30" as="geometry">
            <mxRectangle width="179" height="30" as="alternateBounds" />
          </mxGeometry>
        </mxCell>
        <mxCell id="qb2vWf6YupKcYmzAb9Nw-114" style="shape=tableRow;horizontal=0;startSize=0;swimlaneHead=0;swimlaneBody=0;fillColor=none;collapsible=0;dropTarget=0;points=[[0,0.5],[1,0.5]];portConstraint=eastwest;top=0;left=0;right=0;bottom=0;" parent="wzYJ2r0seQuiLL_xnfaj-27" vertex="1">
          <mxGeometry y="90" width="209" height="30" as="geometry" />
        </mxCell>
        <mxCell id="qb2vWf6YupKcYmzAb9Nw-115" value="FK" style="shape=partialRectangle;connectable=0;fillColor=none;top=0;left=0;bottom=0;right=0;editable=1;overflow=hidden;whiteSpace=wrap;html=1;" parent="qb2vWf6YupKcYmzAb9Nw-114" vertex="1">
          <mxGeometry width="30" height="30" as="geometry">
            <mxRectangle width="30" height="30" as="alternateBounds" />
          </mxGeometry>
        </mxCell>
        <mxCell id="qb2vWf6YupKcYmzAb9Nw-116" value="idUsuario, idAsignatura" style="shape=partialRectangle;connectable=0;fillColor=none;top=0;left=0;bottom=0;right=0;align=left;spacingLeft=6;overflow=hidden;whiteSpace=wrap;html=1;" parent="qb2vWf6YupKcYmzAb9Nw-114" vertex="1">
          <mxGeometry x="30" width="179" height="30" as="geometry">
            <mxRectangle width="179" height="30" as="alternateBounds" />
          </mxGeometry>
        </mxCell>
        <mxCell id="wzYJ2r0seQuiLL_xnfaj-66" value="ASIGNATURA" style="whiteSpace=wrap;html=1;align=center;" parent="1" vertex="1">
          <mxGeometry x="330" y="1190" width="100" height="40" as="geometry" />
        </mxCell>
        <mxCell id="wzYJ2r0seQuiLL_xnfaj-67" value="RESERVA" style="whiteSpace=wrap;html=1;align=center;" parent="1" vertex="1">
          <mxGeometry x="330" y="1430" width="100" height="40" as="geometry" />
        </mxCell>
        <mxCell id="wzYJ2r0seQuiLL_xnfaj-68" value="USUARIO" style="whiteSpace=wrap;html=1;align=center;" parent="1" vertex="1">
          <mxGeometry x="772.5" y="1190" width="100" height="40" as="geometry" />
        </mxCell>
        <mxCell id="FYh_GFuYtrAdqUdtWwlH-12" style="rounded=0;orthogonalLoop=1;jettySize=auto;html=1;entryX=1;entryY=0.5;entryDx=0;entryDy=0;endArrow=none;startFill=0;exitX=0.491;exitY=0.968;exitDx=0;exitDy=0;exitPerimeter=0;" edge="1" parent="1" source="wzYJ2r0seQuiLL_xnfaj-78" target="FYh_GFuYtrAdqUdtWwlH-10">
          <mxGeometry relative="1" as="geometry" />
        </mxCell>
        <mxCell id="wzYJ2r0seQuiLL_xnfaj-78" value="im&lt;span style=&quot;background-color: transparent; color: light-dark(rgb(0, 0, 0), rgb(255, 255, 255));&quot;&gt;parte&lt;/span&gt;" style="html=1;whiteSpace=wrap;aspect=fixed;shape=isoRectangle;" parent="1" vertex="1">
          <mxGeometry x="566.25" y="1183.75" width="87.5" height="52.5" as="geometry" />
        </mxCell>
        <mxCell id="wzYJ2r0seQuiLL_xnfaj-79" value="hace" style="html=1;whiteSpace=wrap;aspect=fixed;shape=isoRectangle;" parent="1" vertex="1">
          <mxGeometry x="540" y="1320" width="87.5" height="52.5" as="geometry" />
        </mxCell>
        <mxCell id="wzYJ2r0seQuiLL_xnfaj-81" style="rounded=0;orthogonalLoop=1;jettySize=auto;html=1;entryX=0.5;entryY=0;entryDx=0;entryDy=0;exitX=-0.005;exitY=0.501;exitDx=0;exitDy=0;exitPerimeter=0;endArrow=none;startFill=0;" parent="1" source="wzYJ2r0seQuiLL_xnfaj-79" target="wzYJ2r0seQuiLL_xnfaj-67" edge="1">
          <mxGeometry relative="1" as="geometry">
            <mxPoint x="803" y="1375" as="sourcePoint" />
            <mxPoint x="733" y="1455" as="targetPoint" />
          </mxGeometry>
        </mxCell>
        <mxCell id="wzYJ2r0seQuiLL_xnfaj-82" style="rounded=0;orthogonalLoop=1;jettySize=auto;html=1;entryX=1;entryY=0.513;entryDx=0;entryDy=0;exitX=0;exitY=0.5;exitDx=0;exitDy=0;endArrow=none;startFill=0;entryPerimeter=0;" parent="1" source="wzYJ2r0seQuiLL_xnfaj-68" target="wzYJ2r0seQuiLL_xnfaj-79" edge="1">
          <mxGeometry relative="1" as="geometry">
            <mxPoint x="813" y="1385" as="sourcePoint" />
            <mxPoint x="743" y="1465" as="targetPoint" />
          </mxGeometry>
        </mxCell>
        <mxCell id="wzYJ2r0seQuiLL_xnfaj-83" style="rounded=0;orthogonalLoop=1;jettySize=auto;html=1;entryX=0.996;entryY=0.494;entryDx=0;entryDy=0;exitX=0;exitY=0.5;exitDx=0;exitDy=0;endArrow=none;startFill=0;entryPerimeter=0;" parent="1" source="wzYJ2r0seQuiLL_xnfaj-68" target="wzYJ2r0seQuiLL_xnfaj-78" edge="1">
          <mxGeometry relative="1" as="geometry">
            <mxPoint x="823" y="1395" as="sourcePoint" />
            <mxPoint x="753" y="1475" as="targetPoint" />
          </mxGeometry>
        </mxCell>
        <mxCell id="wzYJ2r0seQuiLL_xnfaj-84" style="rounded=0;orthogonalLoop=1;jettySize=auto;html=1;entryX=1;entryY=0.5;entryDx=0;entryDy=0;exitX=0.043;exitY=0.5;exitDx=0;exitDy=0;exitPerimeter=0;endArrow=none;startFill=0;" parent="1" source="wzYJ2r0seQuiLL_xnfaj-78" target="wzYJ2r0seQuiLL_xnfaj-66" edge="1">
          <mxGeometry relative="1" as="geometry">
            <mxPoint x="833" y="1405" as="sourcePoint" />
            <mxPoint x="763" y="1485" as="targetPoint" />
          </mxGeometry>
        </mxCell>
        <mxCell id="kKRNNC9Q83lT1yHQBPAs-1" value="(1,n)" style="text;html=1;align=center;verticalAlign=middle;resizable=0;points=[];autosize=1;strokeColor=none;fillColor=none;" parent="1" vertex="1">
          <mxGeometry x="418" y="1183.75" width="50" height="30" as="geometry" />
        </mxCell>
        <mxCell id="kKRNNC9Q83lT1yHQBPAs-2" value="(1,n)" style="text;html=1;align=center;verticalAlign=middle;resizable=0;points=[];autosize=1;strokeColor=none;fillColor=none;" parent="1" vertex="1">
          <mxGeometry x="722.5" y="1183.75" width="50" height="30" as="geometry" />
        </mxCell>
        <mxCell id="kKRNNC9Q83lT1yHQBPAs-3" value="(0,n)" style="text;html=1;align=center;verticalAlign=middle;resizable=0;points=[];autosize=1;strokeColor=none;fillColor=none;" parent="1" vertex="1">
          <mxGeometry x="368" y="1395" width="50" height="30" as="geometry" />
        </mxCell>
        <mxCell id="kKRNNC9Q83lT1yHQBPAs-4" value="(1,1)" style="text;html=1;align=center;verticalAlign=middle;resizable=0;points=[];autosize=1;strokeColor=none;fillColor=none;" parent="1" vertex="1">
          <mxGeometry x="736" y="1222" width="50" height="30" as="geometry" />
        </mxCell>
        <mxCell id="kKRNNC9Q83lT1yHQBPAs-5" value="N:M" style="text;html=1;align=center;verticalAlign=middle;resizable=0;points=[];autosize=1;" parent="1" vertex="1">
          <mxGeometry x="585" y="1153.75" width="50" height="30" as="geometry" />
        </mxCell>
        <mxCell id="kKRNNC9Q83lT1yHQBPAs-6" value="1:N" style="text;html=1;align=center;verticalAlign=middle;resizable=0;points=[];autosize=1;strokeColor=none;fillColor=none;" parent="1" vertex="1">
          <mxGeometry x="566.25" y="1290" width="40" height="30" as="geometry" />
        </mxCell>
        <mxCell id="s3r70qQsfje_ApMH5TLD-10" style="rounded=0;orthogonalLoop=1;jettySize=auto;html=1;entryX=0.5;entryY=0;entryDx=0;entryDy=0;endArrow=none;startFill=0;" parent="1" source="kKRNNC9Q83lT1yHQBPAs-8" target="wzYJ2r0seQuiLL_xnfaj-66" edge="1">
          <mxGeometry relative="1" as="geometry" />
        </mxCell>
        <mxCell id="kKRNNC9Q83lT1yHQBPAs-8" value="&lt;span style=&quot;text-align: left;&quot;&gt;nombreAsignatura&lt;/span&gt;" style="ellipse;whiteSpace=wrap;html=1;" parent="1" vertex="1">
          <mxGeometry x="290" y="1095" width="120" height="50" as="geometry" />
        </mxCell>
        <mxCell id="s3r70qQsfje_ApMH5TLD-14" style="rounded=0;orthogonalLoop=1;jettySize=auto;html=1;entryX=0.5;entryY=1;entryDx=0;entryDy=0;endArrow=none;startFill=0;" parent="1" source="kKRNNC9Q83lT1yHQBPAs-10" target="wzYJ2r0seQuiLL_xnfaj-66" edge="1">
          <mxGeometry relative="1" as="geometry" />
        </mxCell>
        <mxCell id="kKRNNC9Q83lT1yHQBPAs-10" value="&lt;span style=&quot;color: rgb(0, 0, 0); font-family: Helvetica; font-size: 12px; font-style: normal; font-variant-ligatures: normal; font-variant-caps: normal; font-weight: 400; letter-spacing: normal; orphans: 2; text-align: left; text-indent: 0px; text-transform: none; widows: 2; word-spacing: 0px; -webkit-text-stroke-width: 0px; white-space: normal; background-color: rgb(251, 251, 251); text-decoration-thickness: initial; text-decoration-style: initial; text-decoration-color: initial; float: none; display: inline !important;&quot;&gt;curso&lt;/span&gt;" style="ellipse;whiteSpace=wrap;html=1;" parent="1" vertex="1">
          <mxGeometry x="200" y="1265.75" width="110" height="43.75" as="geometry" />
        </mxCell>
        <mxCell id="s3r70qQsfje_ApMH5TLD-12" style="rounded=0;orthogonalLoop=1;jettySize=auto;html=1;endArrow=none;startFill=0;" parent="1" source="kKRNNC9Q83lT1yHQBPAs-12" target="wzYJ2r0seQuiLL_xnfaj-66" edge="1">
          <mxGeometry relative="1" as="geometry" />
        </mxCell>
        <mxCell id="kKRNNC9Q83lT1yHQBPAs-12" value="&lt;span style=&quot;color: rgb(0, 0, 0); font-family: Helvetica; font-size: 12px; font-style: normal; font-variant-ligatures: normal; font-variant-caps: normal; font-weight: 700; letter-spacing: normal; orphans: 2; text-align: left; text-indent: 0px; text-transform: none; widows: 2; word-spacing: 0px; -webkit-text-stroke-width: 0px; white-space: normal; background-color: rgb(251, 251, 251); text-decoration: underline; float: none; display: inline !important;&quot;&gt;idAsignatura&lt;/span&gt;" style="ellipse;whiteSpace=wrap;html=1;" parent="1" vertex="1">
          <mxGeometry x="200" y="1140" width="100" height="50" as="geometry" />
        </mxCell>
        <mxCell id="s3r70qQsfje_ApMH5TLD-16" style="rounded=0;orthogonalLoop=1;jettySize=auto;html=1;entryX=0.25;entryY=1;entryDx=0;entryDy=0;endArrow=none;startFill=0;" parent="1" source="s3r70qQsfje_ApMH5TLD-1" target="wzYJ2r0seQuiLL_xnfaj-67" edge="1">
          <mxGeometry relative="1" as="geometry" />
        </mxCell>
        <mxCell id="s3r70qQsfje_ApMH5TLD-1" value="&lt;b&gt;&lt;u&gt;idReserva&lt;/u&gt;&lt;/b&gt;" style="ellipse;whiteSpace=wrap;html=1;" parent="1" vertex="1">
          <mxGeometry x="190" y="1485" width="70" height="50" as="geometry" />
        </mxCell>
        <mxCell id="s3r70qQsfje_ApMH5TLD-17" style="rounded=0;orthogonalLoop=1;jettySize=auto;html=1;entryX=0.75;entryY=1;entryDx=0;entryDy=0;endArrow=none;startFill=0;" parent="1" source="s3r70qQsfje_ApMH5TLD-2" target="wzYJ2r0seQuiLL_xnfaj-67" edge="1">
          <mxGeometry relative="1" as="geometry" />
        </mxCell>
        <mxCell id="s3r70qQsfje_ApMH5TLD-2" value="fecha" style="ellipse;whiteSpace=wrap;html=1;" parent="1" vertex="1">
          <mxGeometry x="308" y="1510" width="60" height="40" as="geometry" />
        </mxCell>
        <mxCell id="s3r70qQsfje_ApMH5TLD-18" style="rounded=0;orthogonalLoop=1;jettySize=auto;html=1;entryX=0.25;entryY=0;entryDx=0;entryDy=0;endArrow=none;startFill=0;" parent="1" source="s3r70qQsfje_ApMH5TLD-5" target="wzYJ2r0seQuiLL_xnfaj-68" edge="1">
          <mxGeometry relative="1" as="geometry" />
        </mxCell>
        <mxCell id="s3r70qQsfje_ApMH5TLD-5" value="&lt;u&gt;&lt;b&gt;idUsuario&lt;/b&gt;&lt;/u&gt;" style="ellipse;whiteSpace=wrap;html=1;" parent="1" vertex="1">
          <mxGeometry x="760" y="1085" width="70" height="40" as="geometry" />
        </mxCell>
        <mxCell id="s3r70qQsfje_ApMH5TLD-20" style="rounded=0;orthogonalLoop=1;jettySize=auto;html=1;entryX=0.75;entryY=0;entryDx=0;entryDy=0;endArrow=none;startFill=0;" parent="1" source="s3r70qQsfje_ApMH5TLD-6" target="wzYJ2r0seQuiLL_xnfaj-68" edge="1">
          <mxGeometry relative="1" as="geometry" />
        </mxCell>
        <mxCell id="s3r70qQsfje_ApMH5TLD-6" value="contrasena" style="ellipse;whiteSpace=wrap;html=1;" parent="1" vertex="1">
          <mxGeometry x="890" y="1123.75" width="80" height="30" as="geometry" />
        </mxCell>
        <mxCell id="s3r70qQsfje_ApMH5TLD-21" style="rounded=0;orthogonalLoop=1;jettySize=auto;html=1;entryX=1;entryY=0;entryDx=0;entryDy=0;endArrow=none;startFill=0;" parent="1" source="s3r70qQsfje_ApMH5TLD-7" target="wzYJ2r0seQuiLL_xnfaj-68" edge="1">
          <mxGeometry relative="1" as="geometry" />
        </mxCell>
        <mxCell id="s3r70qQsfje_ApMH5TLD-7" value="apellido1" style="ellipse;whiteSpace=wrap;html=1;" parent="1" vertex="1">
          <mxGeometry x="930" y="1170" width="60" height="40" as="geometry" />
        </mxCell>
        <mxCell id="s3r70qQsfje_ApMH5TLD-19" style="rounded=0;orthogonalLoop=1;jettySize=auto;html=1;entryX=0.5;entryY=0;entryDx=0;entryDy=0;endArrow=none;startFill=0;" parent="1" source="s3r70qQsfje_ApMH5TLD-8" target="wzYJ2r0seQuiLL_xnfaj-68" edge="1">
          <mxGeometry relative="1" as="geometry" />
        </mxCell>
        <mxCell id="s3r70qQsfje_ApMH5TLD-8" value="nombreUsuario" style="ellipse;whiteSpace=wrap;html=1;" parent="1" vertex="1">
          <mxGeometry x="860" y="1090" width="110" height="30" as="geometry" />
        </mxCell>
        <mxCell id="s3r70qQsfje_ApMH5TLD-29" style="rounded=0;orthogonalLoop=1;jettySize=auto;html=1;entryX=1;entryY=0.5;entryDx=0;entryDy=0;endArrow=none;startFill=0;" parent="1" source="s3r70qQsfje_ApMH5TLD-22" target="wzYJ2r0seQuiLL_xnfaj-68" edge="1">
          <mxGeometry relative="1" as="geometry" />
        </mxCell>
        <mxCell id="s3r70qQsfje_ApMH5TLD-22" value="apellido2" style="ellipse;whiteSpace=wrap;html=1;" parent="1" vertex="1">
          <mxGeometry x="940" y="1230" width="60" height="40" as="geometry" />
        </mxCell>
        <mxCell id="s3r70qQsfje_ApMH5TLD-27" style="rounded=0;orthogonalLoop=1;jettySize=auto;html=1;entryX=1;entryY=1;entryDx=0;entryDy=0;endArrow=none;startFill=0;" parent="1" source="s3r70qQsfje_ApMH5TLD-24" target="wzYJ2r0seQuiLL_xnfaj-68" edge="1">
          <mxGeometry relative="1" as="geometry" />
        </mxCell>
        <mxCell id="s3r70qQsfje_ApMH5TLD-24" value="email" style="ellipse;whiteSpace=wrap;html=1;" parent="1" vertex="1">
          <mxGeometry x="865" y="1250" width="60" height="40" as="geometry" />
        </mxCell>
        <mxCell id="qb2vWf6YupKcYmzAb9Nw-3" value="DEPARTAMENTO" style="whiteSpace=wrap;html=1;align=center;" parent="1" vertex="1">
          <mxGeometry x="552" y="990" width="103.75" height="40" as="geometry" />
        </mxCell>
        <mxCell id="qb2vWf6YupKcYmzAb9Nw-7" value="corresponde" style="html=1;whiteSpace=wrap;aspect=fixed;shape=isoRectangle;" parent="1" vertex="1">
          <mxGeometry x="460" y="1072.5" width="87.5" height="52.5" as="geometry" />
        </mxCell>
        <mxCell id="qb2vWf6YupKcYmzAb9Nw-8" value="pertenece" style="html=1;whiteSpace=wrap;aspect=fixed;shape=isoRectangle;" parent="1" vertex="1">
          <mxGeometry x="660" y="1078.75" width="87.5" height="52.5" as="geometry" />
        </mxCell>
        <mxCell id="qb2vWf6YupKcYmzAb9Nw-9" style="rounded=0;orthogonalLoop=1;jettySize=auto;html=1;entryX=0.69;entryY=0.2;entryDx=0;entryDy=0;exitX=0.5;exitY=1;exitDx=0;exitDy=0;endArrow=none;startFill=0;entryPerimeter=0;" parent="1" source="qb2vWf6YupKcYmzAb9Nw-3" target="qb2vWf6YupKcYmzAb9Nw-7" edge="1">
          <mxGeometry relative="1" as="geometry">
            <mxPoint x="580" y="1220" as="sourcePoint" />
            <mxPoint x="440" y="1220" as="targetPoint" />
          </mxGeometry>
        </mxCell>
        <mxCell id="qb2vWf6YupKcYmzAb9Nw-10" style="rounded=0;orthogonalLoop=1;jettySize=auto;html=1;entryX=0.286;entryY=0.797;entryDx=0;entryDy=0;exitX=0.75;exitY=0;exitDx=0;exitDy=0;endArrow=none;startFill=0;entryPerimeter=0;" parent="1" source="wzYJ2r0seQuiLL_xnfaj-66" target="qb2vWf6YupKcYmzAb9Nw-7" edge="1">
          <mxGeometry relative="1" as="geometry">
            <mxPoint x="590" y="1230" as="sourcePoint" />
            <mxPoint x="450" y="1230" as="targetPoint" />
          </mxGeometry>
        </mxCell>
        <mxCell id="qb2vWf6YupKcYmzAb9Nw-11" style="rounded=0;orthogonalLoop=1;jettySize=auto;html=1;entryX=0.75;entryY=1;entryDx=0;entryDy=0;exitX=0.264;exitY=0.261;exitDx=0;exitDy=0;exitPerimeter=0;endArrow=none;startFill=0;" parent="1" source="qb2vWf6YupKcYmzAb9Nw-8" target="qb2vWf6YupKcYmzAb9Nw-3" edge="1">
          <mxGeometry relative="1" as="geometry">
            <mxPoint x="600" y="1240" as="sourcePoint" />
            <mxPoint x="460" y="1240" as="targetPoint" />
          </mxGeometry>
        </mxCell>
        <mxCell id="qb2vWf6YupKcYmzAb9Nw-12" style="rounded=0;orthogonalLoop=1;jettySize=auto;html=1;entryX=0.713;entryY=0.79;entryDx=0;entryDy=0;exitX=0;exitY=0;exitDx=0;exitDy=0;endArrow=none;startFill=0;entryPerimeter=0;" parent="1" source="wzYJ2r0seQuiLL_xnfaj-68" target="qb2vWf6YupKcYmzAb9Nw-8" edge="1">
          <mxGeometry relative="1" as="geometry">
            <mxPoint x="610" y="1250" as="sourcePoint" />
            <mxPoint x="470" y="1250" as="targetPoint" />
          </mxGeometry>
        </mxCell>
        <mxCell id="qb2vWf6YupKcYmzAb9Nw-13" value="(1,1)" style="text;html=1;align=center;verticalAlign=middle;resizable=0;points=[];autosize=1;strokeColor=none;fillColor=none;" parent="1" vertex="1">
          <mxGeometry x="541" y="1024" width="50" height="30" as="geometry" />
        </mxCell>
        <mxCell id="qb2vWf6YupKcYmzAb9Nw-14" value="(1,n)" style="text;html=1;align=center;verticalAlign=middle;resizable=0;points=[];autosize=1;strokeColor=none;fillColor=none;" parent="1" vertex="1">
          <mxGeometry x="380" y="1160" width="50" height="30" as="geometry" />
        </mxCell>
        <mxCell id="qb2vWf6YupKcYmzAb9Nw-15" value="N:1" style="text;html=1;align=center;verticalAlign=middle;resizable=0;points=[];autosize=1;" parent="1" vertex="1">
          <mxGeometry x="542" y="1085" width="40" height="30" as="geometry" />
        </mxCell>
        <mxCell id="qb2vWf6YupKcYmzAb9Nw-16" value="(1,n)" style="text;html=1;align=center;verticalAlign=middle;resizable=0;points=[];autosize=1;strokeColor=none;fillColor=none;" parent="1" vertex="1">
          <mxGeometry x="751.5" y="1160" width="50" height="30" as="geometry" />
        </mxCell>
        <mxCell id="qb2vWf6YupKcYmzAb9Nw-17" value="(1,1)" style="text;html=1;align=center;verticalAlign=middle;resizable=0;points=[];autosize=1;strokeColor=none;fillColor=none;" parent="1" vertex="1">
          <mxGeometry x="630" y="1024" width="50" height="30" as="geometry" />
        </mxCell>
        <mxCell id="qb2vWf6YupKcYmzAb9Nw-18" value="N:1" style="text;html=1;align=center;verticalAlign=middle;resizable=0;points=[];autosize=1;" parent="1" vertex="1">
          <mxGeometry x="627.5" y="1090" width="40" height="30" as="geometry" />
        </mxCell>
        <mxCell id="qb2vWf6YupKcYmzAb9Nw-19" value="&lt;u&gt;&lt;b&gt;idDepartamento&lt;/b&gt;&lt;/u&gt;" style="ellipse;whiteSpace=wrap;html=1;" parent="1" vertex="1">
          <mxGeometry x="496" y="920" width="108" height="40" as="geometry" />
        </mxCell>
        <mxCell id="qb2vWf6YupKcYmzAb9Nw-20" value="nombreDepartamento" style="ellipse;whiteSpace=wrap;html=1;" parent="1" vertex="1">
          <mxGeometry x="624.5" y="920" width="144.25" height="45" as="geometry" />
        </mxCell>
        <mxCell id="qb2vWf6YupKcYmzAb9Nw-21" style="rounded=0;orthogonalLoop=1;jettySize=auto;html=1;entryX=0.75;entryY=0;entryDx=0;entryDy=0;exitX=0.5;exitY=1;exitDx=0;exitDy=0;endArrow=none;startFill=0;" parent="1" source="qb2vWf6YupKcYmzAb9Nw-20" target="qb2vWf6YupKcYmzAb9Nw-3" edge="1">
          <mxGeometry relative="1" as="geometry">
            <mxPoint x="693" y="1102" as="sourcePoint" />
            <mxPoint x="640" y="1040" as="targetPoint" />
          </mxGeometry>
        </mxCell>
        <mxCell id="qb2vWf6YupKcYmzAb9Nw-22" style="rounded=0;orthogonalLoop=1;jettySize=auto;html=1;entryX=0.5;entryY=1;entryDx=0;entryDy=0;exitX=0.25;exitY=0;exitDx=0;exitDy=0;endArrow=none;startFill=0;" parent="1" source="qb2vWf6YupKcYmzAb9Nw-3" target="qb2vWf6YupKcYmzAb9Nw-19" edge="1">
          <mxGeometry relative="1" as="geometry">
            <mxPoint x="703" y="1112" as="sourcePoint" />
            <mxPoint x="650" y="1050" as="targetPoint" />
          </mxGeometry>
        </mxCell>
        <mxCell id="qb2vWf6YupKcYmzAb9Nw-24" value="ROL" style="whiteSpace=wrap;html=1;align=center;" parent="1" vertex="1">
          <mxGeometry x="768.75" y="1400" width="103.75" height="40" as="geometry" />
        </mxCell>
        <mxCell id="qb2vWf6YupKcYmzAb9Nw-25" value="tiene" style="html=1;whiteSpace=wrap;aspect=fixed;shape=isoRectangle;" parent="1" vertex="1">
          <mxGeometry x="778.75" y="1293.75" width="87.5" height="52.5" as="geometry" />
        </mxCell>
        <mxCell id="qb2vWf6YupKcYmzAb9Nw-26" style="rounded=0;orthogonalLoop=1;jettySize=auto;html=1;entryX=0.498;entryY=0.024;entryDx=0;entryDy=0;exitX=0.5;exitY=1;exitDx=0;exitDy=0;endArrow=none;startFill=0;entryPerimeter=0;" parent="1" source="wzYJ2r0seQuiLL_xnfaj-68" target="qb2vWf6YupKcYmzAb9Nw-25" edge="1">
          <mxGeometry relative="1" as="geometry">
            <mxPoint x="783" y="1220" as="sourcePoint" />
            <mxPoint x="663" y="1220" as="targetPoint" />
          </mxGeometry>
        </mxCell>
        <mxCell id="qb2vWf6YupKcYmzAb9Nw-27" style="rounded=0;orthogonalLoop=1;jettySize=auto;html=1;entryX=0.5;entryY=0;entryDx=0;entryDy=0;exitX=0.49;exitY=0.976;exitDx=0;exitDy=0;endArrow=none;startFill=0;exitPerimeter=0;" parent="1" source="qb2vWf6YupKcYmzAb9Nw-25" target="qb2vWf6YupKcYmzAb9Nw-24" edge="1">
          <mxGeometry relative="1" as="geometry">
            <mxPoint x="793" y="1230" as="sourcePoint" />
            <mxPoint x="673" y="1230" as="targetPoint" />
          </mxGeometry>
        </mxCell>
        <mxCell id="qb2vWf6YupKcYmzAb9Nw-29" value="(1,n)" style="text;html=1;align=center;verticalAlign=middle;resizable=0;points=[];autosize=1;strokeColor=none;fillColor=none;" parent="1" vertex="1">
          <mxGeometry x="782" y="1223" width="50" height="30" as="geometry" />
        </mxCell>
        <mxCell id="qb2vWf6YupKcYmzAb9Nw-30" value="(1,n)" style="text;html=1;align=center;verticalAlign=middle;resizable=0;points=[];autosize=1;strokeColor=none;fillColor=none;" parent="1" vertex="1">
          <mxGeometry x="780" y="1372.5" width="50" height="30" as="geometry" />
        </mxCell>
        <mxCell id="qb2vWf6YupKcYmzAb9Nw-31" value="N:M" style="text;html=1;align=center;verticalAlign=middle;resizable=0;points=[];autosize=1;" parent="1" vertex="1">
          <mxGeometry x="736" y="1305" width="50" height="30" as="geometry" />
        </mxCell>
        <mxCell id="qb2vWf6YupKcYmzAb9Nw-32" value="&lt;u&gt;&lt;b&gt;idRol&lt;/b&gt;&lt;/u&gt;" style="ellipse;whiteSpace=wrap;html=1;" parent="1" vertex="1">
          <mxGeometry x="747.5" y="1485" width="70" height="40" as="geometry" />
        </mxCell>
        <mxCell id="qb2vWf6YupKcYmzAb9Nw-34" style="rounded=0;orthogonalLoop=1;jettySize=auto;html=1;entryX=0.5;entryY=1;entryDx=0;entryDy=0;endArrow=none;startFill=0;exitX=0.5;exitY=0;exitDx=0;exitDy=0;" parent="1" source="qb2vWf6YupKcYmzAb9Nw-32" target="qb2vWf6YupKcYmzAb9Nw-24" edge="1">
          <mxGeometry relative="1" as="geometry">
            <mxPoint x="937" y="1312" as="sourcePoint" />
            <mxPoint x="883" y="1240" as="targetPoint" />
          </mxGeometry>
        </mxCell>
        <mxCell id="qb2vWf6YupKcYmzAb9Nw-36" style="rounded=0;orthogonalLoop=1;jettySize=auto;html=1;entryX=0.75;entryY=1;entryDx=0;entryDy=0;endArrow=none;startFill=0;" parent="1" source="qb2vWf6YupKcYmzAb9Nw-35" target="qb2vWf6YupKcYmzAb9Nw-24" edge="1">
          <mxGeometry relative="1" as="geometry" />
        </mxCell>
        <mxCell id="qb2vWf6YupKcYmzAb9Nw-35" value="nombreRol" style="ellipse;whiteSpace=wrap;html=1;" parent="1" vertex="1">
          <mxGeometry x="860" y="1490" width="70" height="30" as="geometry" />
        </mxCell>
        <mxCell id="qb2vWf6YupKcYmzAb9Nw-37" value="DEPARTAMENTOS" style="shape=table;startSize=30;container=1;collapsible=1;childLayout=tableLayout;fixedRows=1;rowLines=0;fontStyle=1;align=center;resizeLast=1;html=1;" parent="1" vertex="1">
          <mxGeometry x="319.25" y="558" width="180" height="90" as="geometry" />
        </mxCell>
        <mxCell id="qb2vWf6YupKcYmzAb9Nw-38" value="" style="shape=tableRow;horizontal=0;startSize=0;swimlaneHead=0;swimlaneBody=0;fillColor=none;collapsible=0;dropTarget=0;points=[[0,0.5],[1,0.5]];portConstraint=eastwest;top=0;left=0;right=0;bottom=1;" parent="qb2vWf6YupKcYmzAb9Nw-37" vertex="1">
          <mxGeometry y="30" width="180" height="30" as="geometry" />
        </mxCell>
        <mxCell id="qb2vWf6YupKcYmzAb9Nw-39" value="PK" style="shape=partialRectangle;connectable=0;fillColor=none;top=0;left=0;bottom=0;right=0;fontStyle=1;overflow=hidden;whiteSpace=wrap;html=1;" parent="qb2vWf6YupKcYmzAb9Nw-38" vertex="1">
          <mxGeometry width="30" height="30" as="geometry">
            <mxRectangle width="30" height="30" as="alternateBounds" />
          </mxGeometry>
        </mxCell>
        <mxCell id="qb2vWf6YupKcYmzAb9Nw-40" value="idDepartamento" style="shape=partialRectangle;connectable=0;fillColor=none;top=0;left=0;bottom=0;right=0;align=left;spacingLeft=6;fontStyle=5;overflow=hidden;whiteSpace=wrap;html=1;" parent="qb2vWf6YupKcYmzAb9Nw-38" vertex="1">
          <mxGeometry x="30" width="150" height="30" as="geometry">
            <mxRectangle width="150" height="30" as="alternateBounds" />
          </mxGeometry>
        </mxCell>
        <mxCell id="qb2vWf6YupKcYmzAb9Nw-41" value="" style="shape=tableRow;horizontal=0;startSize=0;swimlaneHead=0;swimlaneBody=0;fillColor=none;collapsible=0;dropTarget=0;points=[[0,0.5],[1,0.5]];portConstraint=eastwest;top=0;left=0;right=0;bottom=0;" parent="qb2vWf6YupKcYmzAb9Nw-37" vertex="1">
          <mxGeometry y="60" width="180" height="30" as="geometry" />
        </mxCell>
        <mxCell id="qb2vWf6YupKcYmzAb9Nw-42" value="" style="shape=partialRectangle;connectable=0;fillColor=none;top=0;left=0;bottom=0;right=0;editable=1;overflow=hidden;whiteSpace=wrap;html=1;" parent="qb2vWf6YupKcYmzAb9Nw-41" vertex="1">
          <mxGeometry width="30" height="30" as="geometry">
            <mxRectangle width="30" height="30" as="alternateBounds" />
          </mxGeometry>
        </mxCell>
        <mxCell id="qb2vWf6YupKcYmzAb9Nw-43" value="nombreDepartamento" style="shape=partialRectangle;connectable=0;fillColor=none;top=0;left=0;bottom=0;right=0;align=left;spacingLeft=6;overflow=hidden;whiteSpace=wrap;html=1;" parent="qb2vWf6YupKcYmzAb9Nw-41" vertex="1">
          <mxGeometry x="30" width="150" height="30" as="geometry">
            <mxRectangle width="150" height="30" as="alternateBounds" />
          </mxGeometry>
        </mxCell>
        <mxCell id="qb2vWf6YupKcYmzAb9Nw-47" value="ROLES" style="shape=table;startSize=30;container=1;collapsible=1;childLayout=tableLayout;fixedRows=1;rowLines=0;fontStyle=1;align=center;resizeLast=1;html=1;" parent="1" vertex="1">
          <mxGeometry x="586.75" y="588" width="180" height="90" as="geometry" />
        </mxCell>
        <mxCell id="qb2vWf6YupKcYmzAb9Nw-48" value="" style="shape=tableRow;horizontal=0;startSize=0;swimlaneHead=0;swimlaneBody=0;fillColor=none;collapsible=0;dropTarget=0;points=[[0,0.5],[1,0.5]];portConstraint=eastwest;top=0;left=0;right=0;bottom=1;" parent="qb2vWf6YupKcYmzAb9Nw-47" vertex="1">
          <mxGeometry y="30" width="180" height="30" as="geometry" />
        </mxCell>
        <mxCell id="qb2vWf6YupKcYmzAb9Nw-49" value="PK" style="shape=partialRectangle;connectable=0;fillColor=none;top=0;left=0;bottom=0;right=0;fontStyle=1;overflow=hidden;whiteSpace=wrap;html=1;" parent="qb2vWf6YupKcYmzAb9Nw-48" vertex="1">
          <mxGeometry width="30" height="30" as="geometry">
            <mxRectangle width="30" height="30" as="alternateBounds" />
          </mxGeometry>
        </mxCell>
        <mxCell id="qb2vWf6YupKcYmzAb9Nw-50" value="idRol" style="shape=partialRectangle;connectable=0;fillColor=none;top=0;left=0;bottom=0;right=0;align=left;spacingLeft=6;fontStyle=5;overflow=hidden;whiteSpace=wrap;html=1;" parent="qb2vWf6YupKcYmzAb9Nw-48" vertex="1">
          <mxGeometry x="30" width="150" height="30" as="geometry">
            <mxRectangle width="150" height="30" as="alternateBounds" />
          </mxGeometry>
        </mxCell>
        <mxCell id="qb2vWf6YupKcYmzAb9Nw-51" value="" style="shape=tableRow;horizontal=0;startSize=0;swimlaneHead=0;swimlaneBody=0;fillColor=none;collapsible=0;dropTarget=0;points=[[0,0.5],[1,0.5]];portConstraint=eastwest;top=0;left=0;right=0;bottom=0;" parent="qb2vWf6YupKcYmzAb9Nw-47" vertex="1">
          <mxGeometry y="60" width="180" height="30" as="geometry" />
        </mxCell>
        <mxCell id="qb2vWf6YupKcYmzAb9Nw-52" value="" style="shape=partialRectangle;connectable=0;fillColor=none;top=0;left=0;bottom=0;right=0;editable=1;overflow=hidden;whiteSpace=wrap;html=1;" parent="qb2vWf6YupKcYmzAb9Nw-51" vertex="1">
          <mxGeometry width="30" height="30" as="geometry">
            <mxRectangle width="30" height="30" as="alternateBounds" />
          </mxGeometry>
        </mxCell>
        <mxCell id="qb2vWf6YupKcYmzAb9Nw-53" value="nombreRol" style="shape=partialRectangle;connectable=0;fillColor=none;top=0;left=0;bottom=0;right=0;align=left;spacingLeft=6;overflow=hidden;whiteSpace=wrap;html=1;" parent="qb2vWf6YupKcYmzAb9Nw-51" vertex="1">
          <mxGeometry x="30" width="150" height="30" as="geometry">
            <mxRectangle width="150" height="30" as="alternateBounds" />
          </mxGeometry>
        </mxCell>
        <mxCell id="qb2vWf6YupKcYmzAb9Nw-92" value="USUARIOS - ASIGNATURAS" style="shape=table;startSize=30;container=1;collapsible=1;childLayout=tableLayout;fixedRows=1;rowLines=0;fontStyle=1;align=center;resizeLast=1;html=1;" parent="1" vertex="1">
          <mxGeometry x="347.75" y="358" width="180" height="180" as="geometry">
            <mxRectangle x="560" y="220" width="80" height="30" as="alternateBounds" />
          </mxGeometry>
        </mxCell>
        <mxCell id="qb2vWf6YupKcYmzAb9Nw-93" value="" style="shape=tableRow;horizontal=0;startSize=0;swimlaneHead=0;swimlaneBody=0;fillColor=none;collapsible=0;dropTarget=0;points=[[0,0.5],[1,0.5]];portConstraint=eastwest;top=0;left=0;right=0;bottom=1;" parent="qb2vWf6YupKcYmzAb9Nw-92" vertex="1">
          <mxGeometry y="30" width="180" height="30" as="geometry" />
        </mxCell>
        <mxCell id="qb2vWf6YupKcYmzAb9Nw-94" value="PK" style="shape=partialRectangle;connectable=0;fillColor=none;top=0;left=0;bottom=0;right=0;fontStyle=1;overflow=hidden;whiteSpace=wrap;html=1;" parent="qb2vWf6YupKcYmzAb9Nw-93" vertex="1">
          <mxGeometry width="30" height="30" as="geometry">
            <mxRectangle width="30" height="30" as="alternateBounds" />
          </mxGeometry>
        </mxCell>
        <mxCell id="qb2vWf6YupKcYmzAb9Nw-95" value="idUsuario,idAsignatura" style="shape=partialRectangle;connectable=0;fillColor=none;top=0;left=0;bottom=0;right=0;align=left;spacingLeft=6;fontStyle=5;overflow=hidden;whiteSpace=wrap;html=1;" parent="qb2vWf6YupKcYmzAb9Nw-93" vertex="1">
          <mxGeometry x="30" width="150" height="30" as="geometry">
            <mxRectangle width="150" height="30" as="alternateBounds" />
          </mxGeometry>
        </mxCell>
        <mxCell id="qb2vWf6YupKcYmzAb9Nw-96" value="" style="shape=tableRow;horizontal=0;startSize=0;swimlaneHead=0;swimlaneBody=0;fillColor=none;collapsible=0;dropTarget=0;points=[[0,0.5],[1,0.5]];portConstraint=eastwest;top=0;left=0;right=0;bottom=0;" parent="qb2vWf6YupKcYmzAb9Nw-92" vertex="1">
          <mxGeometry y="60" width="180" height="30" as="geometry" />
        </mxCell>
        <mxCell id="qb2vWf6YupKcYmzAb9Nw-97" value="" style="shape=partialRectangle;connectable=0;fillColor=none;top=0;left=0;bottom=0;right=0;editable=1;overflow=hidden;whiteSpace=wrap;html=1;" parent="qb2vWf6YupKcYmzAb9Nw-96" vertex="1">
          <mxGeometry width="30" height="30" as="geometry">
            <mxRectangle width="30" height="30" as="alternateBounds" />
          </mxGeometry>
        </mxCell>
        <mxCell id="qb2vWf6YupKcYmzAb9Nw-98" value="numAlumnos" style="shape=partialRectangle;connectable=0;fillColor=none;top=0;left=0;bottom=0;right=0;align=left;spacingLeft=6;overflow=hidden;whiteSpace=wrap;html=1;" parent="qb2vWf6YupKcYmzAb9Nw-96" vertex="1">
          <mxGeometry x="30" width="150" height="30" as="geometry">
            <mxRectangle width="150" height="30" as="alternateBounds" />
          </mxGeometry>
        </mxCell>
        <mxCell id="qb2vWf6YupKcYmzAb9Nw-99" value="" style="shape=tableRow;horizontal=0;startSize=0;swimlaneHead=0;swimlaneBody=0;fillColor=none;collapsible=0;dropTarget=0;points=[[0,0.5],[1,0.5]];portConstraint=eastwest;top=0;left=0;right=0;bottom=0;" parent="qb2vWf6YupKcYmzAb9Nw-92" vertex="1">
          <mxGeometry y="90" width="180" height="30" as="geometry" />
        </mxCell>
        <mxCell id="qb2vWf6YupKcYmzAb9Nw-100" value="" style="shape=partialRectangle;connectable=0;fillColor=none;top=0;left=0;bottom=0;right=0;editable=1;overflow=hidden;whiteSpace=wrap;html=1;" parent="qb2vWf6YupKcYmzAb9Nw-99" vertex="1">
          <mxGeometry width="30" height="30" as="geometry">
            <mxRectangle width="30" height="30" as="alternateBounds" />
          </mxGeometry>
        </mxCell>
        <mxCell id="qb2vWf6YupKcYmzAb9Nw-101" value="grupo" style="shape=partialRectangle;connectable=0;fillColor=none;top=0;left=0;bottom=0;right=0;align=left;spacingLeft=6;overflow=hidden;whiteSpace=wrap;html=1;" parent="qb2vWf6YupKcYmzAb9Nw-99" vertex="1">
          <mxGeometry x="30" width="150" height="30" as="geometry">
            <mxRectangle width="150" height="30" as="alternateBounds" />
          </mxGeometry>
        </mxCell>
        <mxCell id="qb2vWf6YupKcYmzAb9Nw-102" style="shape=tableRow;horizontal=0;startSize=0;swimlaneHead=0;swimlaneBody=0;fillColor=none;collapsible=0;dropTarget=0;points=[[0,0.5],[1,0.5]];portConstraint=eastwest;top=0;left=0;right=0;bottom=0;" parent="qb2vWf6YupKcYmzAb9Nw-92" vertex="1">
          <mxGeometry y="120" width="180" height="30" as="geometry" />
        </mxCell>
        <mxCell id="qb2vWf6YupKcYmzAb9Nw-103" value="FK1" style="shape=partialRectangle;connectable=0;fillColor=none;top=0;left=0;bottom=0;right=0;editable=1;overflow=hidden;whiteSpace=wrap;html=1;" parent="qb2vWf6YupKcYmzAb9Nw-102" vertex="1">
          <mxGeometry width="30" height="30" as="geometry">
            <mxRectangle width="30" height="30" as="alternateBounds" />
          </mxGeometry>
        </mxCell>
        <mxCell id="qb2vWf6YupKcYmzAb9Nw-104" value="idUsuario" style="shape=partialRectangle;connectable=0;fillColor=none;top=0;left=0;bottom=0;right=0;align=left;spacingLeft=6;overflow=hidden;whiteSpace=wrap;html=1;" parent="qb2vWf6YupKcYmzAb9Nw-102" vertex="1">
          <mxGeometry x="30" width="150" height="30" as="geometry">
            <mxRectangle width="150" height="30" as="alternateBounds" />
          </mxGeometry>
        </mxCell>
        <mxCell id="qb2vWf6YupKcYmzAb9Nw-105" style="shape=tableRow;horizontal=0;startSize=0;swimlaneHead=0;swimlaneBody=0;fillColor=none;collapsible=0;dropTarget=0;points=[[0,0.5],[1,0.5]];portConstraint=eastwest;top=0;left=0;right=0;bottom=0;" parent="qb2vWf6YupKcYmzAb9Nw-92" vertex="1">
          <mxGeometry y="150" width="180" height="30" as="geometry" />
        </mxCell>
        <mxCell id="qb2vWf6YupKcYmzAb9Nw-106" value="FK2" style="shape=partialRectangle;connectable=0;fillColor=none;top=0;left=0;bottom=0;right=0;editable=1;overflow=hidden;whiteSpace=wrap;html=1;" parent="qb2vWf6YupKcYmzAb9Nw-105" vertex="1">
          <mxGeometry width="30" height="30" as="geometry">
            <mxRectangle width="30" height="30" as="alternateBounds" />
          </mxGeometry>
        </mxCell>
        <mxCell id="qb2vWf6YupKcYmzAb9Nw-107" value="idAsignatura" style="shape=partialRectangle;connectable=0;fillColor=none;top=0;left=0;bottom=0;right=0;align=left;spacingLeft=6;overflow=hidden;whiteSpace=wrap;html=1;" parent="qb2vWf6YupKcYmzAb9Nw-105" vertex="1">
          <mxGeometry x="30" width="150" height="30" as="geometry">
            <mxRectangle width="150" height="30" as="alternateBounds" />
          </mxGeometry>
        </mxCell>
        <mxCell id="qb2vWf6YupKcYmzAb9Nw-124" style="edgeStyle=orthogonalEdgeStyle;rounded=0;orthogonalLoop=1;jettySize=auto;html=1;entryX=1;entryY=0.5;entryDx=0;entryDy=0;" parent="1" source="qb2vWf6YupKcYmzAb9Nw-108" target="qb2vWf6YupKcYmzAb9Nw-38" edge="1">
          <mxGeometry relative="1" as="geometry" />
        </mxCell>
        <mxCell id="qb2vWf6YupKcYmzAb9Nw-125" style="edgeStyle=orthogonalEdgeStyle;rounded=0;orthogonalLoop=1;jettySize=auto;html=1;entryX=0;entryY=0.5;entryDx=0;entryDy=0;" parent="1" source="qb2vWf6YupKcYmzAb9Nw-111" target="qb2vWf6YupKcYmzAb9Nw-38" edge="1">
          <mxGeometry relative="1" as="geometry" />
        </mxCell>
        <mxCell id="qb2vWf6YupKcYmzAb9Nw-126" style="edgeStyle=orthogonalEdgeStyle;rounded=0;orthogonalLoop=1;jettySize=auto;html=1;entryX=0;entryY=0.5;entryDx=0;entryDy=0;" parent="1" source="qb2vWf6YupKcYmzAb9Nw-102" target="wzYJ2r0seQuiLL_xnfaj-2" edge="1">
          <mxGeometry relative="1" as="geometry" />
        </mxCell>
        <mxCell id="qb2vWf6YupKcYmzAb9Nw-127" style="edgeStyle=orthogonalEdgeStyle;rounded=0;orthogonalLoop=1;jettySize=auto;html=1;entryX=1;entryY=0.5;entryDx=0;entryDy=0;" parent="1" source="qb2vWf6YupKcYmzAb9Nw-105" target="wzYJ2r0seQuiLL_xnfaj-15" edge="1">
          <mxGeometry relative="1" as="geometry" />
        </mxCell>
        <mxCell id="qb2vWf6YupKcYmzAb9Nw-128" style="edgeStyle=orthogonalEdgeStyle;rounded=0;orthogonalLoop=1;jettySize=auto;html=1;entryX=1;entryY=0.5;entryDx=0;entryDy=0;" parent="1" source="qb2vWf6YupKcYmzAb9Nw-114" target="qb2vWf6YupKcYmzAb9Nw-93" edge="1">
          <mxGeometry relative="1" as="geometry" />
        </mxCell>
        <mxCell id="FYh_GFuYtrAdqUdtWwlH-1" value="TRAMO HORARIO" style="whiteSpace=wrap;html=1;align=center;" vertex="1" parent="1">
          <mxGeometry x="622.5" y="1430" width="100" height="40" as="geometry" />
        </mxCell>
        <mxCell id="FYh_GFuYtrAdqUdtWwlH-3" value="incluye" style="html=1;whiteSpace=wrap;aspect=fixed;shape=isoRectangle;" vertex="1" parent="1">
          <mxGeometry x="478.75" y="1423.75" width="87.5" height="52.5" as="geometry" />
        </mxCell>
        <mxCell id="FYh_GFuYtrAdqUdtWwlH-4" style="edgeStyle=orthogonalEdgeStyle;rounded=0;orthogonalLoop=1;jettySize=auto;html=1;entryX=0.06;entryY=0.52;entryDx=0;entryDy=0;entryPerimeter=0;endArrow=none;startFill=0;" edge="1" parent="1" source="wzYJ2r0seQuiLL_xnfaj-67" target="FYh_GFuYtrAdqUdtWwlH-3">
          <mxGeometry relative="1" as="geometry" />
        </mxCell>
        <mxCell id="FYh_GFuYtrAdqUdtWwlH-5" style="edgeStyle=orthogonalEdgeStyle;rounded=0;orthogonalLoop=1;jettySize=auto;html=1;entryX=0.964;entryY=0.52;entryDx=0;entryDy=0;entryPerimeter=0;endArrow=none;startFill=0;" edge="1" parent="1" source="FYh_GFuYtrAdqUdtWwlH-1" target="FYh_GFuYtrAdqUdtWwlH-3">
          <mxGeometry relative="1" as="geometry" />
        </mxCell>
        <mxCell id="FYh_GFuYtrAdqUdtWwlH-7" value="(0,n)" style="text;html=1;align=center;verticalAlign=middle;resizable=0;points=[];autosize=1;strokeColor=none;fillColor=none;" vertex="1" parent="1">
          <mxGeometry x="418" y="1425" width="50" height="30" as="geometry" />
        </mxCell>
        <mxCell id="FYh_GFuYtrAdqUdtWwlH-8" value="(1,n)" style="text;html=1;align=center;verticalAlign=middle;resizable=0;points=[];autosize=1;strokeColor=none;fillColor=none;" vertex="1" parent="1">
          <mxGeometry x="578.87" y="1423.75" width="50" height="30" as="geometry" />
        </mxCell>
        <mxCell id="FYh_GFuYtrAdqUdtWwlH-9" value="N:M" style="text;html=1;align=center;verticalAlign=middle;resizable=0;points=[];autosize=1;" vertex="1" parent="1">
          <mxGeometry x="497.5" y="1400" width="50" height="30" as="geometry" />
        </mxCell>
        <mxCell id="FYh_GFuYtrAdqUdtWwlH-10" value="&lt;span style=&quot;text-align: left;&quot;&gt;grupo&lt;/span&gt;" style="ellipse;whiteSpace=wrap;html=1;" vertex="1" parent="1">
          <mxGeometry x="443" y="1250" width="120" height="50" as="geometry" />
        </mxCell>
        <mxCell id="FYh_GFuYtrAdqUdtWwlH-11" value="&lt;span style=&quot;text-align: left;&quot;&gt;numeroAlumnos&lt;/span&gt;" style="ellipse;whiteSpace=wrap;html=1;" vertex="1" parent="1">
          <mxGeometry x="471" y="1133.75" width="120" height="50" as="geometry" />
        </mxCell>
        <mxCell id="FYh_GFuYtrAdqUdtWwlH-13" style="rounded=0;orthogonalLoop=1;jettySize=auto;html=1;entryX=0.265;entryY=0.269;entryDx=0;entryDy=0;entryPerimeter=0;endArrow=none;startFill=0;" edge="1" parent="1" source="FYh_GFuYtrAdqUdtWwlH-11" target="wzYJ2r0seQuiLL_xnfaj-78">
          <mxGeometry relative="1" as="geometry" />
        </mxCell>
        <mxCell id="FYh_GFuYtrAdqUdtWwlH-14" value="USUARIOS - ROLES" style="shape=table;startSize=30;container=1;collapsible=1;childLayout=tableLayout;fixedRows=1;rowLines=0;fontStyle=1;align=center;resizeLast=1;html=1;" vertex="1" parent="1">
          <mxGeometry x="909.75" y="458" width="180" height="120" as="geometry" />
        </mxCell>
        <mxCell id="FYh_GFuYtrAdqUdtWwlH-15" value="" style="shape=tableRow;horizontal=0;startSize=0;swimlaneHead=0;swimlaneBody=0;fillColor=none;collapsible=0;dropTarget=0;points=[[0,0.5],[1,0.5]];portConstraint=eastwest;top=0;left=0;right=0;bottom=1;" vertex="1" parent="FYh_GFuYtrAdqUdtWwlH-14">
          <mxGeometry y="30" width="180" height="30" as="geometry" />
        </mxCell>
        <mxCell id="FYh_GFuYtrAdqUdtWwlH-16" value="PK" style="shape=partialRectangle;connectable=0;fillColor=none;top=0;left=0;bottom=0;right=0;fontStyle=1;overflow=hidden;whiteSpace=wrap;html=1;" vertex="1" parent="FYh_GFuYtrAdqUdtWwlH-15">
          <mxGeometry width="30" height="30" as="geometry">
            <mxRectangle width="30" height="30" as="alternateBounds" />
          </mxGeometry>
        </mxCell>
        <mxCell id="FYh_GFuYtrAdqUdtWwlH-17" value="idUsuario,idRol" style="shape=partialRectangle;connectable=0;fillColor=none;top=0;left=0;bottom=0;right=0;align=left;spacingLeft=6;fontStyle=5;overflow=hidden;whiteSpace=wrap;html=1;" vertex="1" parent="FYh_GFuYtrAdqUdtWwlH-15">
          <mxGeometry x="30" width="150" height="30" as="geometry">
            <mxRectangle width="150" height="30" as="alternateBounds" />
          </mxGeometry>
        </mxCell>
        <mxCell id="FYh_GFuYtrAdqUdtWwlH-18" value="" style="shape=tableRow;horizontal=0;startSize=0;swimlaneHead=0;swimlaneBody=0;fillColor=none;collapsible=0;dropTarget=0;points=[[0,0.5],[1,0.5]];portConstraint=eastwest;top=0;left=0;right=0;bottom=0;" vertex="1" parent="FYh_GFuYtrAdqUdtWwlH-14">
          <mxGeometry y="60" width="180" height="30" as="geometry" />
        </mxCell>
        <mxCell id="FYh_GFuYtrAdqUdtWwlH-19" value="FK1" style="shape=partialRectangle;connectable=0;fillColor=none;top=0;left=0;bottom=0;right=0;editable=1;overflow=hidden;whiteSpace=wrap;html=1;" vertex="1" parent="FYh_GFuYtrAdqUdtWwlH-18">
          <mxGeometry width="30" height="30" as="geometry">
            <mxRectangle width="30" height="30" as="alternateBounds" />
          </mxGeometry>
        </mxCell>
        <mxCell id="FYh_GFuYtrAdqUdtWwlH-20" value="idUsuario" style="shape=partialRectangle;connectable=0;fillColor=none;top=0;left=0;bottom=0;right=0;align=left;spacingLeft=6;overflow=hidden;whiteSpace=wrap;html=1;" vertex="1" parent="FYh_GFuYtrAdqUdtWwlH-18">
          <mxGeometry x="30" width="150" height="30" as="geometry">
            <mxRectangle width="150" height="30" as="alternateBounds" />
          </mxGeometry>
        </mxCell>
        <mxCell id="FYh_GFuYtrAdqUdtWwlH-24" style="shape=tableRow;horizontal=0;startSize=0;swimlaneHead=0;swimlaneBody=0;fillColor=none;collapsible=0;dropTarget=0;points=[[0,0.5],[1,0.5]];portConstraint=eastwest;top=0;left=0;right=0;bottom=0;" vertex="1" parent="FYh_GFuYtrAdqUdtWwlH-14">
          <mxGeometry y="90" width="180" height="30" as="geometry" />
        </mxCell>
        <mxCell id="FYh_GFuYtrAdqUdtWwlH-25" value="FK2" style="shape=partialRectangle;connectable=0;fillColor=none;top=0;left=0;bottom=0;right=0;editable=1;overflow=hidden;whiteSpace=wrap;html=1;" vertex="1" parent="FYh_GFuYtrAdqUdtWwlH-24">
          <mxGeometry width="30" height="30" as="geometry">
            <mxRectangle width="30" height="30" as="alternateBounds" />
          </mxGeometry>
        </mxCell>
        <mxCell id="FYh_GFuYtrAdqUdtWwlH-26" value="idRol" style="shape=partialRectangle;connectable=0;fillColor=none;top=0;left=0;bottom=0;right=0;align=left;spacingLeft=6;overflow=hidden;whiteSpace=wrap;html=1;" vertex="1" parent="FYh_GFuYtrAdqUdtWwlH-24">
          <mxGeometry x="30" width="150" height="30" as="geometry">
            <mxRectangle width="150" height="30" as="alternateBounds" />
          </mxGeometry>
        </mxCell>
        <mxCell id="FYh_GFuYtrAdqUdtWwlH-21" value="hora" style="ellipse;whiteSpace=wrap;html=1;" vertex="1" parent="1">
          <mxGeometry x="582" y="1503" width="60" height="40" as="geometry" />
        </mxCell>
        <mxCell id="FYh_GFuYtrAdqUdtWwlH-22" style="rounded=0;orthogonalLoop=1;jettySize=auto;html=1;entryX=0.5;entryY=1;entryDx=0;entryDy=0;endArrow=none;startFill=0;" edge="1" parent="1" source="FYh_GFuYtrAdqUdtWwlH-21" target="FYh_GFuYtrAdqUdtWwlH-1">
          <mxGeometry relative="1" as="geometry" />
        </mxCell>
        <mxCell id="FYh_GFuYtrAdqUdtWwlH-27" style="edgeStyle=orthogonalEdgeStyle;rounded=0;orthogonalLoop=1;jettySize=auto;html=1;entryX=1;entryY=0.5;entryDx=0;entryDy=0;" edge="1" parent="1" source="FYh_GFuYtrAdqUdtWwlH-24" target="qb2vWf6YupKcYmzAb9Nw-48">
          <mxGeometry relative="1" as="geometry" />
        </mxCell>
        <mxCell id="FYh_GFuYtrAdqUdtWwlH-28" style="edgeStyle=orthogonalEdgeStyle;rounded=0;orthogonalLoop=1;jettySize=auto;html=1;entryX=1;entryY=0.5;entryDx=0;entryDy=0;" edge="1" parent="1" source="FYh_GFuYtrAdqUdtWwlH-18" target="wzYJ2r0seQuiLL_xnfaj-2">
          <mxGeometry relative="1" as="geometry" />
        </mxCell>
        <mxCell id="FYh_GFuYtrAdqUdtWwlH-29" value="RESERVAS - TRAMO" style="shape=table;startSize=30;container=1;collapsible=1;childLayout=tableLayout;fixedRows=1;rowLines=0;fontStyle=1;align=center;resizeLast=1;html=1;" vertex="1" parent="1">
          <mxGeometry x="97.75" y="238" width="209" height="120" as="geometry" />
        </mxCell>
        <mxCell id="FYh_GFuYtrAdqUdtWwlH-30" value="" style="shape=tableRow;horizontal=0;startSize=0;swimlaneHead=0;swimlaneBody=0;fillColor=none;collapsible=0;dropTarget=0;points=[[0,0.5],[1,0.5]];portConstraint=eastwest;top=0;left=0;right=0;bottom=1;" vertex="1" parent="FYh_GFuYtrAdqUdtWwlH-29">
          <mxGeometry y="30" width="209" height="30" as="geometry" />
        </mxCell>
        <mxCell id="FYh_GFuYtrAdqUdtWwlH-31" value="PK" style="shape=partialRectangle;connectable=0;fillColor=none;top=0;left=0;bottom=0;right=0;fontStyle=1;overflow=hidden;whiteSpace=wrap;html=1;" vertex="1" parent="FYh_GFuYtrAdqUdtWwlH-30">
          <mxGeometry width="30" height="30" as="geometry">
            <mxRectangle width="30" height="30" as="alternateBounds" />
          </mxGeometry>
        </mxCell>
        <mxCell id="FYh_GFuYtrAdqUdtWwlH-32" value="idReserva,idTramo" style="shape=partialRectangle;connectable=0;fillColor=none;top=0;left=0;bottom=0;right=0;align=left;spacingLeft=6;fontStyle=5;overflow=hidden;whiteSpace=wrap;html=1;" vertex="1" parent="FYh_GFuYtrAdqUdtWwlH-30">
          <mxGeometry x="30" width="179" height="30" as="geometry">
            <mxRectangle width="179" height="30" as="alternateBounds" />
          </mxGeometry>
        </mxCell>
        <mxCell id="FYh_GFuYtrAdqUdtWwlH-39" style="shape=tableRow;horizontal=0;startSize=0;swimlaneHead=0;swimlaneBody=0;fillColor=none;collapsible=0;dropTarget=0;points=[[0,0.5],[1,0.5]];portConstraint=eastwest;top=0;left=0;right=0;bottom=0;" vertex="1" parent="FYh_GFuYtrAdqUdtWwlH-29">
          <mxGeometry y="60" width="209" height="30" as="geometry" />
        </mxCell>
        <mxCell id="FYh_GFuYtrAdqUdtWwlH-40" value="FK1" style="shape=partialRectangle;connectable=0;fillColor=none;top=0;left=0;bottom=0;right=0;editable=1;overflow=hidden;whiteSpace=wrap;html=1;" vertex="1" parent="FYh_GFuYtrAdqUdtWwlH-39">
          <mxGeometry width="30" height="30" as="geometry">
            <mxRectangle width="30" height="30" as="alternateBounds" />
          </mxGeometry>
        </mxCell>
        <mxCell id="FYh_GFuYtrAdqUdtWwlH-41" value="idReserva" style="shape=partialRectangle;connectable=0;fillColor=none;top=0;left=0;bottom=0;right=0;align=left;spacingLeft=6;overflow=hidden;whiteSpace=wrap;html=1;" vertex="1" parent="FYh_GFuYtrAdqUdtWwlH-39">
          <mxGeometry x="30" width="179" height="30" as="geometry">
            <mxRectangle width="179" height="30" as="alternateBounds" />
          </mxGeometry>
        </mxCell>
        <mxCell id="FYh_GFuYtrAdqUdtWwlH-55" style="shape=tableRow;horizontal=0;startSize=0;swimlaneHead=0;swimlaneBody=0;fillColor=none;collapsible=0;dropTarget=0;points=[[0,0.5],[1,0.5]];portConstraint=eastwest;top=0;left=0;right=0;bottom=0;" vertex="1" parent="FYh_GFuYtrAdqUdtWwlH-29">
          <mxGeometry y="90" width="209" height="30" as="geometry" />
        </mxCell>
        <mxCell id="FYh_GFuYtrAdqUdtWwlH-56" value="FK2" style="shape=partialRectangle;connectable=0;fillColor=none;top=0;left=0;bottom=0;right=0;editable=1;overflow=hidden;whiteSpace=wrap;html=1;" vertex="1" parent="FYh_GFuYtrAdqUdtWwlH-55">
          <mxGeometry width="30" height="30" as="geometry">
            <mxRectangle width="30" height="30" as="alternateBounds" />
          </mxGeometry>
        </mxCell>
        <mxCell id="FYh_GFuYtrAdqUdtWwlH-57" value="idTramo" style="shape=partialRectangle;connectable=0;fillColor=none;top=0;left=0;bottom=0;right=0;align=left;spacingLeft=6;overflow=hidden;whiteSpace=wrap;html=1;" vertex="1" parent="FYh_GFuYtrAdqUdtWwlH-55">
          <mxGeometry x="30" width="179" height="30" as="geometry">
            <mxRectangle width="179" height="30" as="alternateBounds" />
          </mxGeometry>
        </mxCell>
        <mxCell id="FYh_GFuYtrAdqUdtWwlH-42" value="TRAMO HORARIO" style="shape=table;startSize=30;container=1;collapsible=1;childLayout=tableLayout;fixedRows=1;rowLines=0;fontStyle=1;align=center;resizeLast=1;html=1;" vertex="1" parent="1">
          <mxGeometry x="97.75" y="108" width="209" height="90" as="geometry" />
        </mxCell>
        <mxCell id="FYh_GFuYtrAdqUdtWwlH-43" value="" style="shape=tableRow;horizontal=0;startSize=0;swimlaneHead=0;swimlaneBody=0;fillColor=none;collapsible=0;dropTarget=0;points=[[0,0.5],[1,0.5]];portConstraint=eastwest;top=0;left=0;right=0;bottom=1;" vertex="1" parent="FYh_GFuYtrAdqUdtWwlH-42">
          <mxGeometry y="30" width="209" height="30" as="geometry" />
        </mxCell>
        <mxCell id="FYh_GFuYtrAdqUdtWwlH-44" value="PK" style="shape=partialRectangle;connectable=0;fillColor=none;top=0;left=0;bottom=0;right=0;fontStyle=1;overflow=hidden;whiteSpace=wrap;html=1;" vertex="1" parent="FYh_GFuYtrAdqUdtWwlH-43">
          <mxGeometry width="30" height="30" as="geometry">
            <mxRectangle width="30" height="30" as="alternateBounds" />
          </mxGeometry>
        </mxCell>
        <mxCell id="FYh_GFuYtrAdqUdtWwlH-45" value="idTramo" style="shape=partialRectangle;connectable=0;fillColor=none;top=0;left=0;bottom=0;right=0;align=left;spacingLeft=6;fontStyle=5;overflow=hidden;whiteSpace=wrap;html=1;" vertex="1" parent="FYh_GFuYtrAdqUdtWwlH-43">
          <mxGeometry x="30" width="179" height="30" as="geometry">
            <mxRectangle width="179" height="30" as="alternateBounds" />
          </mxGeometry>
        </mxCell>
        <mxCell id="FYh_GFuYtrAdqUdtWwlH-46" value="" style="shape=tableRow;horizontal=0;startSize=0;swimlaneHead=0;swimlaneBody=0;fillColor=none;collapsible=0;dropTarget=0;points=[[0,0.5],[1,0.5]];portConstraint=eastwest;top=0;left=0;right=0;bottom=0;" vertex="1" parent="FYh_GFuYtrAdqUdtWwlH-42">
          <mxGeometry y="60" width="209" height="30" as="geometry" />
        </mxCell>
        <mxCell id="FYh_GFuYtrAdqUdtWwlH-47" value="" style="shape=partialRectangle;connectable=0;fillColor=none;top=0;left=0;bottom=0;right=0;editable=1;overflow=hidden;whiteSpace=wrap;html=1;" vertex="1" parent="FYh_GFuYtrAdqUdtWwlH-46">
          <mxGeometry width="30" height="30" as="geometry">
            <mxRectangle width="30" height="30" as="alternateBounds" />
          </mxGeometry>
        </mxCell>
        <mxCell id="FYh_GFuYtrAdqUdtWwlH-48" value="hora" style="shape=partialRectangle;connectable=0;fillColor=none;top=0;left=0;bottom=0;right=0;align=left;spacingLeft=6;overflow=hidden;whiteSpace=wrap;html=1;" vertex="1" parent="FYh_GFuYtrAdqUdtWwlH-46">
          <mxGeometry x="30" width="179" height="30" as="geometry">
            <mxRectangle width="179" height="30" as="alternateBounds" />
          </mxGeometry>
        </mxCell>
        <mxCell id="FYh_GFuYtrAdqUdtWwlH-59" style="rounded=0;orthogonalLoop=1;jettySize=auto;html=1;entryX=0.75;entryY=1;entryDx=0;entryDy=0;endArrow=none;startFill=0;" edge="1" parent="1" source="FYh_GFuYtrAdqUdtWwlH-58" target="FYh_GFuYtrAdqUdtWwlH-1">
          <mxGeometry relative="1" as="geometry" />
        </mxCell>
        <mxCell id="FYh_GFuYtrAdqUdtWwlH-58" value="idTramo" style="ellipse;whiteSpace=wrap;html=1;" vertex="1" parent="1">
          <mxGeometry x="655.75" y="1503" width="60" height="40" as="geometry" />
        </mxCell>
        <mxCell id="FYh_GFuYtrAdqUdtWwlH-60" style="edgeStyle=orthogonalEdgeStyle;rounded=0;orthogonalLoop=1;jettySize=auto;html=1;entryX=0;entryY=0.5;entryDx=0;entryDy=0;" edge="1" parent="1" source="FYh_GFuYtrAdqUdtWwlH-39" target="wzYJ2r0seQuiLL_xnfaj-28">
          <mxGeometry relative="1" as="geometry" />
        </mxCell>
        <mxCell id="FYh_GFuYtrAdqUdtWwlH-61" style="edgeStyle=orthogonalEdgeStyle;rounded=0;orthogonalLoop=1;jettySize=auto;html=1;entryX=0;entryY=0.5;entryDx=0;entryDy=0;" edge="1" parent="1" source="FYh_GFuYtrAdqUdtWwlH-55" target="FYh_GFuYtrAdqUdtWwlH-43">
          <mxGeometry relative="1" as="geometry" />
        </mxCell>
        <mxCell id="FYh_GFuYtrAdqUdtWwlH-62" value="OBSERVACIONES&lt;div&gt;&lt;br&gt;&lt;/div&gt;&lt;div&gt;-Puede haber hasta 100 alumnos en el aula&lt;/div&gt;&lt;div&gt;-&lt;/div&gt;" style="text;html=1;align=left;verticalAlign=middle;resizable=0;points=[];autosize=1;strokeColor=none;fillColor=none;" vertex="1" parent="1">
          <mxGeometry x="80" y="720" width="260" height="70" as="geometry" />
        </mxCell>
      </root>
    </mxGraphModel>
  </diagram>
</mxfile>
